<svg xmlns="http://www.w3.org/2000/svg" width="134" height="27" viewBox="0 0 134 27" fill="none">
<path d="M6.8 3.152C8.576 3.152 10.128 3.504 11.456 4.208C12.784 4.912 13.808 5.904 14.528 7.184C15.264 8.448 15.632 9.912 15.632 11.576C15.632 13.224 15.264 14.688 14.528 15.968C13.808 17.248 12.776 18.24 11.432 18.944C10.104 19.648 8.56 20 6.8 20H0.488V3.152H6.8ZM6.536 16.448C8.088 16.448 9.296 16.024 10.16 15.176C11.024 14.328 11.456 13.128 11.456 11.576C11.456 10.024 11.024 8.816 10.16 7.952C9.296 7.088 8.088 6.656 6.536 6.656H4.592V16.448H6.536ZM30.5495 13.088C30.5495 13.472 30.5255 13.872 30.4775 14.288H21.1895C21.2535 15.12 21.5175 15.76 21.9815 16.208C22.4615 16.64 23.0455 16.856 23.7335 16.856C24.7575 16.856 25.4695 16.424 25.8695 15.56H30.2375C30.0135 16.44 29.6055 17.232 29.0135 17.936C28.4375 18.64 27.7095 19.192 26.8295 19.592C25.9495 19.992 24.9655 20.192 23.8775 20.192C22.5655 20.192 21.3975 19.912 20.3735 19.352C19.3495 18.792 18.5495 17.992 17.9735 16.952C17.3975 15.912 17.1095 14.696 17.1095 13.304C17.1095 11.912 17.3895 10.696 17.9495 9.656C18.5255 8.616 19.3255 7.816 20.3495 7.256C21.3735 6.696 22.5495 6.416 23.8775 6.416C25.1735 6.416 26.3255 6.688 27.3335 7.232C28.3415 7.776 29.1255 8.552 29.6855 9.56C30.2615 10.568 30.5495 11.744 30.5495 13.088ZM26.3495 12.008C26.3495 11.304 26.1095 10.744 25.6295 10.328C25.1495 9.912 24.5495 9.704 23.8295 9.704C23.1415 9.704 22.5575 9.904 22.0775 10.304C21.6135 10.704 21.3255 11.272 21.2135 12.008H26.3495ZM36.8186 8.504C37.2186 7.88 37.7706 7.376 38.4746 6.992C39.1786 6.608 40.0026 6.416 40.9466 6.416C42.0506 6.416 43.0506 6.696 43.9466 7.256C44.8426 7.816 45.5466 8.616 46.0586 9.656C46.5866 10.696 46.8506 11.904 46.8506 13.28C46.8506 14.656 46.5866 15.872 46.0586 16.928C45.5466 17.968 44.8426 18.776 43.9466 19.352C43.0506 19.912 42.0506 20.192 40.9466 20.192C40.0186 20.192 39.1946 20 38.4746 19.616C37.7706 19.232 37.2186 18.736 36.8186 18.128V26.384H32.7146V6.608H36.8186V8.504ZM42.6746 13.28C42.6746 12.256 42.3866 11.456 41.8106 10.88C41.2506 10.288 40.5546 9.992 39.7226 9.992C38.9066 9.992 38.2106 10.288 37.6346 10.88C37.0746 11.472 36.7946 12.28 36.7946 13.304C36.7946 14.328 37.0746 15.136 37.6346 15.728C38.2106 16.32 38.9066 16.616 39.7226 16.616C40.5386 16.616 41.2346 16.32 41.8106 15.728C42.3866 15.12 42.6746 14.304 42.6746 13.28ZM55.0996 20.192C53.7876 20.192 52.6036 19.912 51.5476 19.352C50.5076 18.792 49.6836 17.992 49.0756 16.952C48.4836 15.912 48.1876 14.696 48.1876 13.304C48.1876 11.928 48.4916 10.72 49.0996 9.68C49.7076 8.624 50.5396 7.816 51.5956 7.256C52.6516 6.696 53.8356 6.416 55.1476 6.416C56.4596 6.416 57.6436 6.696 58.6996 7.256C59.7556 7.816 60.5876 8.624 61.1956 9.68C61.8036 10.72 62.1076 11.928 62.1076 13.304C62.1076 14.68 61.7956 15.896 61.1716 16.952C60.5636 17.992 59.7236 18.792 58.6516 19.352C57.5956 19.912 56.4116 20.192 55.0996 20.192ZM55.0996 16.64C55.8836 16.64 56.5476 16.352 57.0916 15.776C57.6516 15.2 57.9316 14.376 57.9316 13.304C57.9316 12.232 57.6596 11.408 57.1156 10.832C56.5876 10.256 55.9316 9.968 55.1476 9.968C54.3476 9.968 53.6836 10.256 53.1556 10.832C52.6276 11.392 52.3636 12.216 52.3636 13.304C52.3636 14.376 52.6196 15.2 53.1316 15.776C53.6596 16.352 54.3156 16.64 55.0996 16.64ZM69.7329 20.192C68.5649 20.192 67.5249 19.992 66.6129 19.592C65.7009 19.192 64.9809 18.648 64.4529 17.96C63.9249 17.256 63.6289 16.472 63.5649 15.608H67.6209C67.6689 16.072 67.8849 16.448 68.2689 16.736C68.6529 17.024 69.1249 17.168 69.6849 17.168C70.1969 17.168 70.5889 17.072 70.8609 16.88C71.1489 16.672 71.2929 16.408 71.2929 16.088C71.2929 15.704 71.0929 15.424 70.6929 15.248C70.2929 15.056 69.6449 14.848 68.7489 14.624C67.7889 14.4 66.9889 14.168 66.3489 13.928C65.7089 13.672 65.1569 13.28 64.6929 12.752C64.2289 12.208 63.9969 11.48 63.9969 10.568C63.9969 9.8 64.2049 9.104 64.6209 8.48C65.0529 7.84 65.6769 7.336 66.4929 6.968C67.3249 6.6 68.3089 6.416 69.4449 6.416C71.1249 6.416 72.4449 6.832 73.4049 7.664C74.3809 8.496 74.9409 9.6 75.0849 10.976H71.2929C71.2289 10.512 71.0209 10.144 70.6689 9.872C70.3329 9.6 69.8849 9.464 69.3249 9.464C68.8449 9.464 68.4769 9.56 68.2209 9.752C67.9649 9.928 67.8369 10.176 67.8369 10.496C67.8369 10.88 68.0369 11.168 68.4369 11.36C68.8529 11.552 69.4929 11.744 70.3569 11.936C71.3489 12.192 72.1569 12.448 72.7809 12.704C73.4049 12.944 73.9489 13.344 74.4129 13.904C74.8929 14.448 75.1409 15.184 75.1569 16.112C75.1569 16.896 74.9329 17.6 74.4849 18.224C74.0529 18.832 73.4209 19.312 72.5889 19.664C71.7729 20.016 70.8209 20.192 69.7329 20.192ZM79.7317 5.216C79.0117 5.216 78.4197 5.008 77.9557 4.592C77.5077 4.16 77.2837 3.632 77.2837 3.008C77.2837 2.368 77.5077 1.84 77.9557 1.424C78.4197 0.991999 79.0117 0.775999 79.7317 0.775999C80.4357 0.775999 81.0117 0.991999 81.4597 1.424C81.9237 1.84 82.1557 2.368 82.1557 3.008C82.1557 3.632 81.9237 4.16 81.4597 4.592C81.0117 5.008 80.4357 5.216 79.7317 5.216ZM81.7717 6.608V20H77.6677V6.608H81.7717ZM92.2098 16.52V20H90.1218C88.6338 20 87.4738 19.64 86.6418 18.92C85.8098 18.184 85.3938 16.992 85.3938 15.344V10.016H83.7618V6.608H85.3938V3.344H89.4978V6.608H92.1858V10.016H89.4978V15.392C89.4978 15.792 89.5938 16.08 89.7858 16.256C89.9778 16.432 90.2978 16.52 90.7458 16.52H92.2098ZM100.592 20.192C99.2798 20.192 98.0958 19.912 97.0398 19.352C95.9998 18.792 95.1758 17.992 94.5678 16.952C93.9758 15.912 93.6798 14.696 93.6798 13.304C93.6798 11.928 93.9838 10.72 94.5918 9.68C95.1998 8.624 96.0318 7.816 97.0878 7.256C98.1438 6.696 99.3278 6.416 100.64 6.416C101.952 6.416 103.136 6.696 104.192 7.256C105.248 7.816 106.08 8.624 106.688 9.68C107.296 10.72 107.6 11.928 107.6 13.304C107.6 14.68 107.288 15.896 106.664 16.952C106.056 17.992 105.216 18.792 104.144 19.352C103.088 19.912 101.904 20.192 100.592 20.192ZM100.592 16.64C101.376 16.64 102.04 16.352 102.584 15.776C103.144 15.2 103.424 14.376 103.424 13.304C103.424 12.232 103.152 11.408 102.608 10.832C102.08 10.256 101.424 9.968 100.64 9.968C99.8398 9.968 99.1758 10.256 98.6478 10.832C98.1198 11.392 97.8558 12.216 97.8558 13.304C97.8558 14.376 98.1118 15.2 98.6238 15.776C99.1518 16.352 99.8078 16.64 100.592 16.64ZM113.881 8.84C114.361 8.104 114.961 7.528 115.681 7.112C116.401 6.68 117.201 6.464 118.081 6.464V10.808H116.953C115.929 10.808 115.161 11.032 114.649 11.48C114.137 11.912 113.881 12.68 113.881 13.784V20H109.777V6.608H113.881V8.84ZM133.723 6.608L125.323 26.36H120.907L123.979 19.544L118.531 6.608H123.115L126.211 14.984L129.283 6.608H133.723Z" fill="#EB6D20"/>
</svg>